<?xml version="1.0" encoding="utf-8"?>
<!-- Generator: Adobe Illustrator 22.0.1, SVG Export Plug-In . SVG Version: 6.00 Build 0)  -->
<svg version="1.1" id="Layer_1" xmlns="http://www.w3.org/2000/svg" xmlns:xlink="http://www.w3.org/1999/xlink" x="0px" y="0px"
	 viewBox="0 0 300 300" style="enable-background:new 0 0 300 300;" xml:space="preserve">
<style type="text/css">
	.st0{fill:#A51414;}
	.st1{fill:#E85656;}
	.st2{clip-path:url(#SVGID_2_);fill:#FFFFFF;}
</style>
<g>
	<circle class="st0" cx="150" cy="150.7" r="150.3"/>
</g>
<g>
	<circle class="st1" cx="150" cy="150.7" r="123.5"/>
</g>
<g>
	<g>
		<defs>
			<rect id="SVGID_1_" x="49.9" y="56.2" width="201.5" height="201.9"/>
		</defs>
		<clipPath id="SVGID_2_">
			<use xlink:href="#SVGID_1_"  style="overflow:visible;"/>
		</clipPath>
		<path class="st2" d="M239.2,130.8c2.2-2.2,2.2-5.7,0-7.9l-8.3-8.3c-1.9-1.9-4.8-2.2-7.1-0.7l-17.5,11.9l11.8-17.7
			c1.5-2.2,1.2-5.1-0.7-7l-18.1-18.1c-1.7-1.7-4.2-2.1-6.3-1.1l-3.1,1.5l1.5-3.3c0.9-2.1,0.5-4.6-1.1-6.2l-5.7-5.7
			c-2.2-2.2-5.7-2.2-7.9,0l-44.1,44.1L195,175L239.2,130.8z M239.2,130.8"/>
		<path class="st2" d="M124.3,120.7l-12.8,12.8c-1,1-1.6,2.5-1.6,3.9c0,1.5,0.6,2.9,1.6,3.9l12.1,12.1c2.3,2.3,3.5,5.6,3.1,8.8
			c-0.4,3.3-2.2,6.2-5,8c-35.6,22.7-38.9,26-40,27.1c-7.8,7.8-7.8,20.6,0,28.4c7.8,7.8,20.6,7.8,28.4,0c1.1-1.1,4.4-4.4,27.1-40
			c1.8-2.8,4.7-4.6,8-4.9c3.3-0.4,6.5,0.8,8.8,3.1l12.1,12.1c2.2,2.2,5.7,2.2,7.9,0l12.8-12.8L124.3,120.7z M101.9,216.7
			c-3.1,3.1-8,3.1-11.1,0c-3.1-3.1-3.1-8,0-11.1c3.1-3.1,8-3.1,11.1,0C105,208.7,105,213.6,101.9,216.7L101.9,216.7z M101.9,216.7"
			/>
	</g>
</g>
</svg>
