<?xml version="1.0" encoding="utf-8"?>
<!-- Generator: Adobe Illustrator 22.0.1, SVG Export Plug-In . SVG Version: 6.00 Build 0)  -->
<svg version="1.1" id="Layer_1" xmlns="http://www.w3.org/2000/svg" xmlns:xlink="http://www.w3.org/1999/xlink" x="0px" y="0px"
	 viewBox="0 0 300 300" style="enable-background:new 0 0 300 300;" xml:space="preserve">
<style type="text/css">
	.st0{fill:#A51414;}
	.st1{fill:#E85656;}
	.st2{clip-path:url(#SVGID_2_);fill:#FFFFFF;}
</style>
<g>
	<circle class="st0" cx="149.7" cy="150.7" r="77.7"/>
</g>
<g>
	<circle class="st1" cx="149.7" cy="150.7" r="63.8"/>
</g>
<g>
	<g>
		<defs>
			<rect id="SVGID_1_" x="98" y="101.8" width="104.1" height="104.3"/>
		</defs>
		<clipPath id="SVGID_2_">
			<use xlink:href="#SVGID_1_"  style="overflow:visible;"/>
		</clipPath>
		<path class="st2" d="M195.7,140.4c1.1-1.1,1.1-2.9,0-4.1l-4.3-4.3c-1-1-2.5-1.1-3.6-0.3l-9.1,6.2l6.1-9.1c0.8-1.1,0.6-2.7-0.4-3.6
			l-9.3-9.3c-0.9-0.9-2.2-1.1-3.3-0.6l-1.6,0.8l0.8-1.7c0.5-1.1,0.3-2.4-0.6-3.2l-2.9-2.9c-1.1-1.1-2.9-1.1-4.1,0l-22.8,22.8
			l32.3,32.3L195.7,140.4z M195.7,140.4"/>
		<path class="st2" d="M136.4,135.2l-6.6,6.6c-0.5,0.5-0.8,1.3-0.8,2c0,0.8,0.3,1.5,0.8,2l6.3,6.3c1.2,1.2,1.8,2.9,1.6,4.6
			c-0.2,1.7-1.1,3.2-2.6,4.1c-18.4,11.7-20.1,13.4-20.7,14c-4,4-4,10.6,0,14.7c4,4,10.6,4,14.7,0c0.6-0.6,2.3-2.3,14-20.7
			c0.9-1.4,2.4-2.4,4.1-2.6c1.7-0.2,3.4,0.4,4.6,1.6l6.3,6.3c1.1,1.1,2.9,1.1,4.1,0l6.6-6.6L136.4,135.2z M124.8,184.8
			c-1.6,1.6-4.2,1.6-5.7,0c-1.6-1.6-1.6-4.2,0-5.7c1.6-1.6,4.2-1.6,5.7,0C126.4,180.6,126.4,183.2,124.8,184.8L124.8,184.8z
			 M124.8,184.8"/>
	</g>
</g>
</svg>
