<?xml version="1.0" encoding="utf-8"?>
<!-- Generator: Adobe Illustrator 22.0.1, SVG Export Plug-In . SVG Version: 6.00 Build 0)  -->
<svg version="1.1" id="Layer_1" xmlns="http://www.w3.org/2000/svg" xmlns:xlink="http://www.w3.org/1999/xlink" x="0px" y="0px"
	 viewBox="0 0 300 300" style="enable-background:new 0 0 300 300;" xml:space="preserve">
<style type="text/css">
	.st0{fill:#FFFFFF;}
</style>
<path class="st0" d="M249.7,127.4c2.7-2.7,2.7-7,0-9.7l-10.3-10.3c-2.3-2.3-6-2.7-8.7-0.8L209,121.3l14.6-21.8
	c1.8-2.7,1.5-6.4-0.8-8.7l-22.3-22.3c-2.1-2.1-5.2-2.6-7.8-1.3l-3.9,1.9l1.8-4.1c1.2-2.6,0.6-5.6-1.4-7.7l-7-7c-2.7-2.7-7-2.7-9.7,0
	l-54.4,54.4l77.1,77.1L249.7,127.4z M249.7,127.4"/>
<path class="st0" d="M108,114.9l-15.8,15.8c-1.3,1.3-2,3-2,4.8c0,1.8,0.7,3.6,2,4.8l14.9,14.9c2.9,2.9,4.3,6.9,3.8,10.9
	c-0.4,4-2.7,7.6-6.1,9.8c-43.9,28-48,32.1-49.3,33.4c-9.7,9.7-9.7,25.4,0,35c9.7,9.7,25.4,9.6,35,0c1.3-1.3,5.4-5.4,33.4-49.3
	c2.2-3.4,5.8-5.7,9.8-6.1c4.1-0.4,8,0.9,10.9,3.8l14.9,14.9c2.7,2.7,7,2.7,9.7,0l15.8-15.8L108,114.9z M80.3,233.4
	c-3.8,3.8-9.9,3.8-13.7,0c-3.8-3.8-3.8-9.9,0-13.7c3.8-3.8,9.9-3.8,13.7,0C84.1,223.4,84.1,229.6,80.3,233.4L80.3,233.4z
	 M80.3,233.4"/>
</svg>
