<?xml version="1.0" encoding="utf-8"?>
<!-- Generator: Adobe Illustrator 22.0.1, SVG Export Plug-In . SVG Version: 6.00 Build 0)  -->
<svg version="1.1" id="Layer_1" xmlns="http://www.w3.org/2000/svg" xmlns:xlink="http://www.w3.org/1999/xlink" x="0px" y="0px"
	 viewBox="0 0 300 300" style="enable-background:new 0 0 300 300;" xml:space="preserve">
<style type="text/css">
	.st0{fill:#FFFFFF;}
</style>
<path class="st0" d="M57.4,110c-3-0.1-5.8,1.7-7,4.4l-25.9,58.4c-1.2,2.8-0.7,6,1.4,8.1c0.7,0.7,1.5,1.3,2.4,1.7
	c1.8,0.8,3.8,0.9,5.7,0.1l29.5-11.3l62.6,34.3l1.6,9.4c1.3,7.4,5.7,13.7,12.2,17.4c0.7,0.4,1.5,0.8,2.2,1.1c6,2.7,12.8,2.8,18.9,0.5
	l74.9-28.8c7-2.7,12.3-8.3,14.6-15.4c2.3-7.1,1.4-14.8-2.6-21.1l-13.1-20.6c2.4-0.4,4.7-1.1,7-2c19.7-7.6,29.5-29.7,21.9-49.4
	c-3.7-9.5-10.8-17-20.1-21.2c-9.3-4.1-19.7-4.4-29.2-0.7c-7.1,2.7-13.2,7.5-17.5,13.6l-4.4-6.9c-1.9-3-5.6-4.2-8.9-3L115,105.1
	c-3.3,1.3-5.3,4.7-4.7,8.2l7.8,45.8l-42.6-14.8l-11.3-29.5C63.1,112,60.4,110.1,57.4,110L57.4,110z M236.5,132.4
	c-3.5,1.3-7.2,1.8-10.8,1.4L206.1,103c0.2-0.6,0.4-1.2,0.7-1.8c2.5-5.7,7.1-10.1,12.9-12.3c5.8-2.2,12.1-2.1,17.8,0.5
	c5.7,2.5,10.1,7.1,12.3,12.9C254.5,114.3,248.5,127.8,236.5,132.4L236.5,132.4z M236.5,132.4"/>
</svg>
